<svg width="800" height="800" viewBox="0 0 800 800" fill="none" xmlns="http://www.w3.org/2000/svg">
<g clip-path="url(#clip0_89_7)">
<path d="M539.126 390.117C554.336 395.415 570.959 395.299 588.69 384.315C619.17 365.441 640.843 322.525 641.519 273.966C642.284 219.576 618.777 173.19 585.846 156.231C583.531 106.851 555.582 67.8363 521.366 67.8363C521.268 67.8363 521.17 67.8507 521.072 67.8507C521.68 60.379 521.336 52.4753 519.689 44.2261C515.06 21.0477 501.183 3.26798 484.845 0.417467C471.449 -1.91477 459.151 5.12513 450.531 17.6357C442.352 6.79513 431.604 -3.15439e-05 419.688 -3.15439e-05C394.161 -3.15439e-05 373.469 30.3766 373.469 67.8507C373.469 67.9659 373.488 68.0811 373.488 68.1963C342.46 71.6514 318.001 109.629 318.001 156.058C318.001 163.156 318.629 170.023 319.708 176.631C282.775 178.891 253.286 223.419 253.286 278.184C253.286 296.741 256.718 314.074 262.632 329.061C251.285 342.752 244.048 363.512 244.048 386.748C244.048 419.241 258.219 446.81 277.97 457.061C275.42 589.753 307.675 668.041 370.076 773.496C371.194 775.382 372.321 777.282 373.459 779.168C373.704 779.571 373.949 779.974 374.195 780.378C400.143 823.121 458.671 790.383 446.079 736.195C378.853 446.681 586.071 488.531 586.071 488.531C586.071 488.531 591.995 400.957 538.538 396.854C538.606 394.666 538.675 392.463 538.744 390.275C538.881 390.232 538.989 390.16 539.126 390.117Z" fill="#88C057"/>
<path d="M374.204 780.377C373.959 779.974 373.714 779.571 373.469 779.168C372.331 777.282 371.203 775.396 370.085 773.496C307.674 668.041 275.42 589.753 277.979 457.061C258.228 446.81 244.057 419.241 244.057 386.748C244.057 363.498 251.295 342.752 262.641 329.061C256.738 314.074 253.295 296.741 253.295 278.184C253.295 223.419 282.785 178.877 319.717 176.631C318.638 170.023 318.011 163.156 318.011 156.058C318.011 119.174 333.466 87.7035 355.365 74.5451C353.914 67.5628 352.07 60.5229 349.648 53.483C337.566 18.3411 316.304 -3.72875 296.897 0.906926C280.902 4.722 269.712 23.8838 264.897 49.6535C251.481 36.3943 236.594 31.2404 223.149 38.1939C194.327 53.0943 185.236 113.934 201.741 170.282C201.79 170.455 201.859 170.599 201.908 170.771C170.663 192.683 162.357 257.827 182.166 316.594C185.059 325.16 188.423 333.035 192.091 340.305C157.581 361.252 148.47 424.856 170.202 480.44C177.145 498.206 186.423 512.833 196.739 523.875C191.856 541.021 192.915 562.112 200.682 581.576C211.106 607.72 230.671 623.24 248.99 623.052C281.186 715.867 320.688 751.872 380.5 789.131C381.128 789.519 381.755 789.908 382.383 790.282C379.441 787.547 376.646 784.409 374.204 780.377Z" fill="#659C35"/>
<path d="M397.652 351.549C398.22 349.706 398.485 347.777 398.505 345.876C405.536 319.905 414 298.109 422.806 279.926C466.78 266.508 499.957 286.678 500.692 287.139C501.977 287.974 503.311 288.348 504.605 288.348C508.381 288.348 511.98 285.123 513.598 279.739C515.775 272.454 513.51 263.96 508.557 260.764C507.194 259.9 480.137 242.941 441.233 247.102C460.239 218.006 476.92 204.805 479.411 202.962C493.661 192.942 514.481 205.899 521.316 211.744C522.875 213.097 524.582 213.731 526.278 213.731C529.632 213.731 532.908 211.197 534.732 206.648C537.478 199.795 535.938 190.984 531.26 186.939C530.142 185.96 508.096 167.259 485.511 171.016C487.443 159.341 491.729 148.716 493.916 144.455C497.201 138.149 496.377 129.122 492.072 124.3C487.786 119.477 481.618 120.657 478.333 126.992C477.715 128.158 464.848 153.208 464.878 182.044C450.609 194.871 413.745 233.756 387.953 311.901C386.56 316.104 385.217 320.625 383.883 325.16C357.13 298.31 361.533 250.543 361.778 248.225C362.612 240.393 358.973 233.036 353.629 231.784C348.294 230.531 343.253 235.887 342.4 243.733C339.556 269.863 343.636 323.706 376.675 352.628C369.379 384.128 363.847 421.732 362.141 466.116C361.945 467.512 361.906 468.866 361.984 470.248C360.964 501.359 361.945 535.867 365.358 573.658C352.923 563.609 347.235 548.91 346.872 547.917C344.312 540.935 338.409 538.271 333.642 541.957C328.857 545.657 327.003 554.367 329.533 561.407C330.053 562.861 341.792 594.72 368.927 607.029C375.998 663.982 388.6 727.931 408.979 799.698C415.696 799.05 422.237 796.444 428.023 792.211C427.994 792.096 428.004 791.967 427.974 791.837C406.586 717.134 393.68 651.327 386.815 593.18C386.776 592.834 386.756 592.503 386.707 592.172C381.608 548.55 379.95 509.349 380.911 474.236C394.641 439.871 434.996 438.489 435.408 438.475C440.821 438.345 445.146 431.824 445.068 423.877C444.989 415.987 440.625 409.682 435.271 409.682C435.232 409.682 435.192 409.682 435.153 409.682C433.555 409.711 405.595 410.603 383.412 431.017C386.119 402.512 390.62 377.261 396.2 354.831C396.779 353.838 397.279 352.758 397.652 351.549Z" fill="#659C35"/>
</g>
<defs>
<clipPath id="clip0_89_7">
<rect width="800" height="800" fill="white"/>
</clipPath>
</defs>
</svg>
